<svg width="15" height="13" viewBox="0 0 15 13" fill="none" xmlns="http://www.w3.org/2000/svg">
<path d="M1.2627 1.84668H13.54C13.8887 1.84668 14.1621 1.57324 14.1621 1.23145C14.1621 0.889648 13.8887 0.616211 13.54 0.616211H1.2627C0.920898 0.616211 0.647461 0.889648 0.647461 1.23145C0.647461 1.57324 0.920898 1.84668 1.2627 1.84668ZM6.30078 5.23047H13.54C13.8887 5.23047 14.1621 4.96387 14.1621 4.61523C14.1621 4.27344 13.8887 4 13.54 4H6.30078C5.95898 4 5.68555 4.27344 5.68555 4.61523C5.68555 4.96387 5.95898 5.23047 6.30078 5.23047ZM1.2627 8.62109H13.54C13.8887 8.62109 14.1621 8.34766 14.1621 8.00586C14.1621 7.66406 13.8887 7.39062 13.54 7.39062H1.2627C0.920898 7.39062 0.647461 7.66406 0.647461 8.00586C0.647461 8.34766 0.920898 8.62109 1.2627 8.62109ZM6.30078 12.0049H13.54C13.8887 12.0049 14.1621 11.7314 14.1621 11.3896C14.1621 11.0479 13.8887 10.7744 13.54 10.7744H6.30078C5.95898 10.7744 5.68555 11.0479 5.68555 11.3896C5.68555 11.7314 5.95898 12.0049 6.30078 12.0049Z" fill="#FFFFFF"/>
</svg>
