<svg width="15" height="13" viewBox="0 0 15 13" fill="none" xmlns="http://www.w3.org/2000/svg">
<path d="M1.2627 1.84668H13.54C13.8887 1.84668 14.1621 1.57324 14.1621 1.23145C14.1621 0.889648 13.8887 0.616211 13.54 0.616211H1.2627C0.920898 0.616211 0.647461 0.889648 0.647461 1.23145C0.647461 1.57324 0.920898 1.84668 1.2627 1.84668ZM3.78516 5.23047H11.0244C11.3662 5.23047 11.6396 4.96387 11.6396 4.61523C11.6396 4.27344 11.3662 4 11.0244 4H3.78516C3.44336 4 3.16992 4.27344 3.16992 4.61523C3.16992 4.96387 3.44336 5.23047 3.78516 5.23047ZM1.2627 8.62109H13.54C13.8887 8.62109 14.1621 8.34766 14.1621 8.00586C14.1621 7.66406 13.8887 7.39062 13.54 7.39062H1.2627C0.920898 7.39062 0.647461 7.66406 0.647461 8.00586C0.647461 8.34766 0.920898 8.62109 1.2627 8.62109ZM3.78516 12.0049H11.0244C11.3662 12.0049 11.6396 11.7314 11.6396 11.3896C11.6396 11.0479 11.3662 10.7744 11.0244 10.7744H3.78516C3.44336 10.7744 3.16992 11.0479 3.16992 11.3896C3.16992 11.7314 3.44336 12.0049 3.78516 12.0049Z" fill="#FFFFFF"/>
</svg>
