<svg width="15" height="13" viewBox="0 0 15 13" fill="none" xmlns="http://www.w3.org/2000/svg">
<path d="M1.2627 1.84668H13.54C13.8887 1.84668 14.1621 1.57324 14.1621 1.23145C14.1621 0.889648 13.8887 0.616211 13.54 0.616211H1.2627C0.920898 0.616211 0.647461 0.889648 0.647461 1.23145C0.647461 1.57324 0.920898 1.84668 1.2627 1.84668ZM1.2627 5.23047H8.50195C8.84375 5.23047 9.12402 4.96387 9.12402 4.61523C9.12402 4.27344 8.84375 4 8.50195 4H1.2627C0.920898 4 0.647461 4.27344 0.647461 4.61523C0.647461 4.96387 0.920898 5.23047 1.2627 5.23047ZM1.2627 8.62109H13.54C13.8887 8.62109 14.1621 8.34766 14.1621 8.00586C14.1621 7.66406 13.8887 7.39062 13.54 7.39062H1.2627C0.920898 7.39062 0.647461 7.66406 0.647461 8.00586C0.647461 8.34766 0.920898 8.62109 1.2627 8.62109ZM1.2627 12.0049H8.50195C8.84375 12.0049 9.12402 11.7314 9.12402 11.3896C9.12402 11.0479 8.84375 10.7744 8.50195 10.7744H1.2627C0.920898 10.7744 0.647461 11.0479 0.647461 11.3896C0.647461 11.7314 0.920898 12.0049 1.2627 12.0049Z" fill="#FFFFFF"/>
</svg>
