<svg width="22" height="22" viewBox="0 0 22 22" fill="none" xmlns="http://www.w3.org/2000/svg">
<path d="M15.1675 1.69374C15.7824 1.91907 16.1461 2.55619 16.0241 3.20559C16.024 3.20627 16.0239 3.20695 16.0237 3.20762L15.8771 3.96479C15.8102 4.30996 15.9295 4.66488 16.1913 4.89957L16.2794 4.97854L16.3612 5.0573C16.6159 5.30257 16.9812 5.39509 17.3219 5.30063L18.0417 5.1011C18.1099 5.08457 18.1791 5.07279 18.2514 5.06583L18.4084 5.05863C18.9013 5.068 19.3673 5.33891 19.6347 5.83762L20.3437 7.39822C20.3437 7.39838 20.3438 7.39855 20.3439 7.39871C20.6127 7.9933 20.4167 8.6964 19.8732 9.06767C19.8725 9.06815 19.8718 9.06863 19.8711 9.06911L19.221 9.50599C18.9274 9.70332 18.7599 10.0411 18.7805 10.3943L18.7865 10.4975L18.7868 10.5968C18.7878 10.9546 18.9799 11.2846 19.2906 11.4622L19.9355 11.8308C19.9356 11.8308 19.9357 11.8308 19.9357 11.8309C20.4742 12.1393 20.7265 12.7728 20.5617 13.3566L20.5193 13.4832L19.9151 15.107C19.9149 15.1076 19.9147 15.1082 19.9144 15.1088C19.7162 15.6313 19.2168 15.9823 18.6422 15.9866C18.5636 15.9858 18.4825 15.9789 18.3863 15.9626L17.6199 15.8174C17.2766 15.7524 16.9242 15.8713 16.6905 16.131L16.6122 16.2181L16.5345 16.2972C16.2866 16.5494 16.1904 16.9139 16.2816 17.2556L16.4732 17.9742L16.4734 17.9751C16.6332 18.5722 16.364 19.1958 15.8345 19.4922L15.7161 19.5513L14.1449 20.2673C14.1445 20.2675 14.144 20.2677 14.1436 20.2679C13.9684 20.347 13.7785 20.3868 13.5893 20.3852L13.5872 20.3852C13.1454 20.3825 12.7308 20.1652 12.4741 19.7949C12.4737 19.7943 12.4732 19.7936 12.4728 19.793L12.0367 19.1542C11.839 18.8646 11.5042 18.6997 11.1541 18.7196L11.0671 18.7245L10.9704 18.7261C10.6188 18.7319 10.296 18.9219 10.1204 19.2267L9.74412 19.8796C9.74405 19.8797 9.74398 19.8798 9.74391 19.88C9.52338 20.2617 9.13311 20.5106 8.70094 20.5534L8.56561 20.56C8.41034 20.5602 8.2566 20.5324 8.11243 20.4784L8.11169 20.4782L6.47938 19.8686L6.47939 19.8685L6.47243 19.866C5.8557 19.6409 5.49318 19.0012 5.61787 18.3549L5.61792 18.3547L5.76174 17.6082C5.82826 17.2629 5.70857 16.9081 5.44652 16.6737L5.36272 16.5987L5.27893 16.517C5.02643 16.2708 4.66293 16.1758 4.32226 16.267L3.58675 16.4638C3.51798 16.4813 3.44805 16.4937 3.3761 16.5009L3.22148 16.508C2.70627 16.5001 2.23848 16.1983 2.01832 15.7234C2.01802 15.7227 2.01773 15.7221 2.01743 15.7214L1.29432 14.1345C1.03456 13.542 1.2277 12.8449 1.77005 12.4671L2.39394 12.043C2.67842 11.8497 2.84356 11.5236 2.83115 11.1799L2.82115 10.9029C2.80872 10.5587 2.62003 10.2451 2.32174 10.0729L1.67667 9.70054L1.67487 9.69951C1.13778 9.39096 0.88469 8.75837 1.05023 8.1701L1.09199 8.04491L1.64701 6.56642C1.65365 6.54872 1.65979 6.53085 1.66541 6.51283L1.66847 6.50566C1.67405 6.49261 1.67934 6.47944 1.68435 6.46616L1.7439 6.30843C1.76814 6.28043 1.79088 6.25101 1.81199 6.22029L1.86891 6.13744C2.10129 5.82527 2.45839 5.62273 2.85244 5.5876L2.98578 5.58219C3.06036 5.58291 3.13655 5.59005 3.21956 5.60539L3.95328 5.75167C4.30042 5.82088 4.65827 5.70142 4.89422 5.43757L4.97237 5.35018L5.05189 5.26789C5.29614 5.01514 5.38977 4.65272 5.2985 4.31329L5.10156 3.58092L5.10156 3.58092L5.10073 3.57785C4.93837 2.98163 5.20531 2.35637 5.737 2.05775L5.85467 1.99887L7.41634 1.28947L7.41636 1.28951L7.42469 1.28563C7.59973 1.20417 7.79036 1.16332 7.98024 1.16545L7.98244 1.16547C8.42312 1.16942 8.83668 1.38688 9.09354 1.75851L9.5064 2.3691C9.70094 2.65683 10.0308 2.823 10.3778 2.80805L10.5303 2.80148L10.7008 2.79773C11.0467 2.79013 11.3642 2.60419 11.5401 2.30614L11.9046 1.68837L11.9046 1.6884L11.9094 1.68014C12.1297 1.29839 12.52 1.04917 12.9538 1.00642L13.0663 1.00095L13.2094 1.00653C13.319 1.01767 13.4269 1.04284 13.5304 1.08154L13.5305 1.08157L15.1612 1.69143L15.1612 1.69145L15.1675 1.69374Z" stroke="white" stroke-width="2" stroke-linejoin="round"/>
</svg>
