<svg width="40" height="40" viewBox="0 0 40 40" fill="none" xmlns="http://www.w3.org/2000/svg">
<path d="M24.1675 10.6937C24.7824 10.9191 25.1461 11.5562 25.0241 12.2056C25.024 12.2063 25.0239 12.2069 25.0237 12.2076L24.8771 12.9648C24.8102 13.31 24.9295 13.6649 25.1913 13.8996L25.2794 13.9785L25.3612 14.0573C25.6159 14.3026 25.9812 14.3951 26.3219 14.3006L27.0417 14.1011C27.1099 14.0846 27.1791 14.0728 27.2514 14.0658L27.4084 14.0586C27.9013 14.068 28.3673 14.3389 28.6347 14.8376L29.3437 16.3982C29.3437 16.3984 29.3438 16.3985 29.3439 16.3987C29.6127 16.9933 29.4167 17.6964 28.8732 18.0677C28.8725 18.0682 28.8718 18.0686 28.8711 18.0691L28.221 18.506C27.9274 18.7033 27.7599 19.0411 27.7805 19.3943L27.7865 19.4975L27.7868 19.5968C27.7878 19.9546 27.9799 20.2846 28.2906 20.4622L28.9355 20.8308C28.9356 20.8308 28.9357 20.8308 28.9357 20.8309C29.4742 21.1393 29.7265 21.7728 29.5617 22.3566L29.5193 22.4832L28.9151 24.107C28.9149 24.1076 28.9147 24.1082 28.9144 24.1088C28.7162 24.6313 28.2168 24.9823 27.6422 24.9866C27.5636 24.9858 27.4825 24.9789 27.3863 24.9626L26.6199 24.8174C26.2766 24.7524 25.9242 24.8713 25.6905 25.131L25.6122 25.2181L25.5345 25.2972C25.2866 25.5494 25.1904 25.9139 25.2816 26.2556L25.4732 26.9742L25.4734 26.9751C25.6332 27.5722 25.364 28.1958 24.8345 28.4922L24.7161 28.5513L23.1449 29.2673C23.1445 29.2675 23.144 29.2677 23.1436 29.2679C22.9684 29.347 22.7785 29.3868 22.5893 29.3852L22.5872 29.3852C22.1454 29.3825 21.7308 29.1652 21.4741 28.7949C21.4737 28.7943 21.4732 28.7936 21.4728 28.793L21.0367 28.1542C20.839 27.8646 20.5042 27.6997 20.1541 27.7196L20.0671 27.7245L19.9704 27.7261C19.6188 27.7319 19.296 27.9219 19.1204 28.2267L18.7441 28.8796C18.744 28.8797 18.744 28.8798 18.7439 28.88C18.5234 29.2617 18.1331 29.5106 17.7009 29.5534L17.5656 29.56C17.4103 29.5602 17.2566 29.5324 17.1124 29.4784L17.1117 29.4782L15.4794 28.8686L15.4794 28.8685L15.4724 28.866C14.8557 28.6409 14.4932 28.0012 14.6179 27.3549L14.6179 27.3547L14.7617 26.6082C14.8283 26.2629 14.7086 25.9081 14.4465 25.6737L14.3627 25.5987L14.2789 25.517C14.0264 25.2708 13.6629 25.1758 13.3223 25.267L12.5868 25.4638C12.518 25.4813 12.448 25.4937 12.3761 25.5009L12.2215 25.508C11.7063 25.5001 11.2385 25.1983 11.0183 24.7234C11.018 24.7227 11.0177 24.7221 11.0174 24.7214L10.2943 23.1345C10.0346 22.542 10.2277 21.8449 10.7701 21.4671L11.3939 21.043C11.6784 20.8497 11.8436 20.5236 11.8312 20.1799L11.8212 19.9029C11.8087 19.5587 11.62 19.2451 11.3217 19.0729L10.6767 18.7005L10.6749 18.6995C10.1378 18.391 9.88469 17.7584 10.0502 17.1701L10.092 17.0449L10.647 15.5664C10.6537 15.5487 10.6598 15.5308 10.6654 15.5128L10.6685 15.5057C10.674 15.4926 10.6793 15.4794 10.6844 15.4662L10.7439 15.3084C10.7681 15.2804 10.7909 15.251 10.812 15.2203L10.8689 15.1374C11.1013 14.8253 11.4584 14.6227 11.8524 14.5876L11.9858 14.5822C12.0604 14.5829 12.1366 14.59 12.2196 14.6054L12.9533 14.7517C13.3004 14.8209 13.6583 14.7014 13.8942 14.4376L13.9724 14.3502L14.0519 14.2679C14.2961 14.0151 14.3898 13.6527 14.2985 13.3133L14.1016 12.5809L14.1016 12.5809L14.1007 12.5779C13.9384 11.9816 14.2053 11.3564 14.737 11.0578L14.8547 10.9989L16.4163 10.2895L16.4164 10.2895L16.4247 10.2856C16.5997 10.2042 16.7904 10.1633 16.9802 10.1654L16.9824 10.1655C17.4231 10.1694 17.8367 10.3869 18.0935 10.7585L18.5064 11.3691C18.7009 11.6568 19.0308 11.823 19.3778 11.808L19.5303 11.8015L19.7008 11.7977C20.0467 11.7901 20.3642 11.6042 20.5401 11.3061L20.9046 10.6884L20.9046 10.6884L20.9094 10.6801C21.1297 10.2984 21.52 10.0492 21.9538 10.0064L22.0663 10.0009L22.2094 10.0065C22.319 10.0177 22.4269 10.0428 22.5304 10.0815L22.5305 10.0816L24.1612 10.6914L24.1612 10.6914L24.1675 10.6937Z" stroke="white" stroke-width="2" stroke-linejoin="round"/>
<path d="M19.8203 14V22.3516H23.3672V24.0625H18V14H19.8203Z" fill="white"/>
</svg>
