<svg width="24" height="24" viewBox="0 0 24 24" fill="none" xmlns="http://www.w3.org/2000/svg">
<path fill-rule="evenodd" clip-rule="evenodd" d="M23 17.7538C23 19.741 21.9075 20.8095 19.8733 20.8095H4.10788C2.07363 20.8095 1 19.741 1 17.7538V8.13664C1 6.13073 2.07363 5.06216 4.10788 5.06216H5.99144C6.70719 5.06216 6.93322 4.94967 7.40411 4.481L8.1387 3.73113C8.62842 3.22496 9.11815 3 10.0411 3H13.9024C14.8253 3 15.3151 3.24371 15.8048 3.73113L16.5205 4.481C16.9914 4.96842 17.2363 5.06216 17.9521 5.06216H19.8733C21.9075 5.06216 23 6.13073 23 8.13664V17.7538ZM6.57534 12.6171C6.57534 15.5791 8.96747 17.9413 11.9058 17.9413C14.8818 17.9413 17.2363 15.6166 17.2363 12.6171C17.2363 9.67388 14.8818 7.31178 11.9058 7.31178C8.96747 7.31178 6.57534 9.67388 6.57534 12.6171ZM19.0634 10.4425C18.3476 10.4425 17.7637 9.8801 17.7637 9.16772C17.7637 8.43659 18.3476 7.87419 19.0634 7.87419C19.7791 7.87419 20.3442 8.43659 20.363 9.16772C20.363 9.8801 19.7791 10.4425 19.0634 10.4425ZM15.2397 12.6171C15.2397 14.4543 13.7517 15.9166 11.9247 15.9166C10.0788 15.9166 8.60959 14.4543 8.60959 12.6171C8.60959 10.78 10.0788 9.31769 11.9247 9.31769C13.7517 9.31769 15.2397 10.78 15.2397 12.6171Z" fill="white"/>
</svg>
