<svg width="30" height="30" viewBox="0 0 30 30" fill="none" xmlns="http://www.w3.org/2000/svg">
<g filter="url(#filter0_d)">
<path d="M15.0056 26C21.0279 26 26 21.0279 26 15.0056C26 8.97207 21.0168 4 14.9944 4C8.97207 4 4 8.97207 4 15.0056C4 21.0279 8.97207 26 15.0056 26ZM13.5642 20.5698C13.1508 20.5698 12.8156 20.3799 12.5028 20.0112L9.46369 16.3352C9.2514 16.0894 9.15084 15.8212 9.15084 15.5419C9.15084 14.9609 9.63129 14.4916 10.2011 14.4916C10.5475 14.4916 10.8268 14.6369 11.095 14.9609L13.5307 18.0112L18.2346 10.514C18.4916 10.1117 18.8045 9.92179 19.162 9.92179C19.7207 9.92179 20.2458 10.3128 20.2458 10.905C20.2458 11.162 20.1229 11.4302 19.9665 11.6872L14.6034 19.9888C14.3464 20.3687 13.9888 20.5698 13.5642 20.5698Z" fill="white"/>
</g>
<defs>
<filter id="filter0_d" x="0" y="0" width="30" height="30" filterUnits="userSpaceOnUse" color-interpolation-filters="sRGB">
<feFlood flood-opacity="0" result="BackgroundImageFix"/>
<feColorMatrix in="SourceAlpha" type="matrix" values="0 0 0 0 0 0 0 0 0 0 0 0 0 0 0 0 0 0 127 0"/>
<feOffset/>
<feGaussianBlur stdDeviation="2"/>
<feColorMatrix type="matrix" values="0 0 0 0 0 0 0 0 0 0 0 0 0 0 0 0 0 0 0.25 0"/>
<feBlend mode="normal" in2="BackgroundImageFix" result="effect1_dropShadow"/>
<feBlend mode="normal" in="SourceGraphic" in2="effect1_dropShadow" result="shape"/>
</filter>
</defs>
</svg>
