<svg width="20" height="20" viewBox="0 0 20 20" fill="none" xmlns="http://www.w3.org/2000/svg">
<g filter="url(#filter0_d)">
<g filter="url(#filter1_d)">
<path d="M16.049 1.33474L16.0137 1.29938V1.29938L16.049 1.33474ZM10 7.38376L9.96464 7.41911L10 7.45447L10.0354 7.41911L10 7.38376ZM17.6653 1.33474L17.7006 1.29938V1.29938L17.6653 1.33474ZM17.6653 2.95098L17.7006 2.98633L17.6653 2.95098ZM11.6162 9L11.5809 8.96464L11.5455 9L11.5809 9.03536L11.6162 9ZM17.6653 15.049L17.7006 15.0137L17.6653 15.049ZM17.6653 16.6653L17.7006 16.7006L17.6653 16.6653ZM16.049 16.6653L16.0137 16.7006L16.049 16.6653ZM10 10.6162L10.0354 10.5809L10 10.5455L9.96464 10.5809L10 10.6162ZM3.95098 16.6653L3.98633 16.7006L3.95098 16.6653ZM2.33474 16.6653L2.29938 16.7006H2.29938L2.33474 16.6653ZM2.33474 15.049L2.29938 15.0137H2.29938L2.33474 15.049ZM8.38376 9L8.41911 9.03536L8.45447 9L8.41911 8.96464L8.38376 9ZM2.33474 2.95098L2.29938 2.98633L2.33474 2.95098ZM2.33474 1.33474L2.37009 1.37009L2.33474 1.33474ZM3.95098 1.33474L3.98633 1.29938L3.95098 1.33474ZM16.0137 1.29938L9.96464 7.3484L10.0354 7.41911L16.0844 1.37009L16.0137 1.29938ZM17.7006 1.29938C17.2348 0.83354 16.4795 0.83354 16.0137 1.29938L16.0844 1.37009C16.5112 0.943303 17.2031 0.943303 17.6299 1.37009L17.7006 1.29938ZM17.7006 2.98633C18.1665 2.52049 18.1665 1.76522 17.7006 1.29938L17.6299 1.37009C18.0567 1.79688 18.0567 2.48884 17.6299 2.91562L17.7006 2.98633ZM11.6516 9.03536L17.7006 2.98633L17.6299 2.91562L11.5809 8.96464L11.6516 9.03536ZM17.7006 15.0137L11.6516 8.96464L11.5809 9.03536L17.6299 15.0844L17.7006 15.0137ZM17.7006 16.7006C18.1665 16.2348 18.1665 15.4795 17.7006 15.0137L17.6299 15.0844C18.0567 15.5112 18.0567 16.2031 17.6299 16.6299L17.7006 16.7006ZM16.0137 16.7006C16.4795 17.1665 17.2348 17.1665 17.7006 16.7006L17.6299 16.6299C17.2031 17.0567 16.5112 17.0567 16.0844 16.6299L16.0137 16.7006ZM9.96464 10.6516L16.0137 16.7006L16.0844 16.6299L10.0354 10.5809L9.96464 10.6516ZM3.98633 16.7006L10.0354 10.6516L9.96464 10.5809L3.91562 16.6299L3.98633 16.7006ZM2.29938 16.7006C2.76522 17.1665 3.52049 17.1665 3.98633 16.7006L3.91562 16.6299C3.48884 17.0567 2.79688 17.0567 2.37009 16.6299L2.29938 16.7006ZM2.29938 15.0137C1.83354 15.4795 1.83354 16.2348 2.29938 16.7006L2.37009 16.6299C1.9433 16.2031 1.9433 15.5112 2.37009 15.0844L2.29938 15.0137ZM8.3484 8.96464L2.29938 15.0137L2.37009 15.0844L8.41911 9.03536L8.3484 8.96464ZM2.29938 2.98633L8.3484 9.03536L8.41911 8.96464L2.37009 2.91562L2.29938 2.98633ZM2.29938 1.29938C1.83354 1.76522 1.83354 2.52049 2.29938 2.98633L2.37009 2.91562C1.9433 2.48884 1.9433 1.79688 2.37009 1.37009L2.29938 1.29938ZM3.98633 1.29938C3.52049 0.83354 2.76522 0.83354 2.29938 1.29938L2.37009 1.37009C2.79688 0.943303 3.48884 0.943303 3.91562 1.37009L3.98633 1.29938ZM10.0354 7.3484L3.98633 1.29938L3.91562 1.37009L9.96464 7.41911L10.0354 7.3484Z" fill="#9B9B9B"/>
</g>
<mask id="mask0" mask-type="alpha" maskUnits="userSpaceOnUse" x="1" y="0" width="18" height="18">
<path fill-rule="evenodd" clip-rule="evenodd" d="M10 7.38376L16.049 1.33474C16.4953 0.888422 17.219 0.888422 17.6653 1.33474C18.1116 1.78105 18.1116 2.50467 17.6653 2.95098L11.6162 9L17.6653 15.049C18.1116 15.4953 18.1116 16.219 17.6653 16.6653C17.219 17.1116 16.4953 17.1116 16.049 16.6653L10 10.6162L3.95098 16.6653C3.50467 17.1116 2.78105 17.1116 2.33474 16.6653C1.88842 16.219 1.88842 15.4953 2.33474 15.049L8.38376 9L2.33474 2.95098C1.88842 2.50467 1.88842 1.78105 2.33474 1.33474C2.78105 0.888422 3.50467 0.888422 3.95098 1.33474L10 7.38376Z" fill="white"/>
<path d="M16.049 1.33474L16.0137 1.29938V1.29938L16.049 1.33474ZM10 7.38376L9.96464 7.41911L10 7.45447L10.0354 7.41911L10 7.38376ZM17.6653 1.33474L17.7006 1.29938V1.29938L17.6653 1.33474ZM17.6653 2.95098L17.7006 2.98633L17.6653 2.95098ZM11.6162 9L11.5809 8.96464L11.5455 9L11.5809 9.03536L11.6162 9ZM17.6653 15.049L17.7006 15.0137L17.6653 15.049ZM17.6653 16.6653L17.7006 16.7006L17.6653 16.6653ZM16.049 16.6653L16.0137 16.7006L16.049 16.6653ZM10 10.6162L10.0354 10.5809L10 10.5455L9.96464 10.5809L10 10.6162ZM3.95098 16.6653L3.98633 16.7006L3.95098 16.6653ZM2.33474 16.6653L2.29938 16.7006H2.29938L2.33474 16.6653ZM2.33474 15.049L2.29938 15.0137H2.29938L2.33474 15.049ZM8.38376 9L8.41911 9.03536L8.45447 9L8.41911 8.96464L8.38376 9ZM2.33474 2.95098L2.29938 2.98633L2.33474 2.95098ZM2.33474 1.33474L2.37009 1.37009L2.33474 1.33474ZM3.95098 1.33474L3.98633 1.29938L3.95098 1.33474ZM16.0137 1.29938L9.96464 7.3484L10.0354 7.41911L16.0844 1.37009L16.0137 1.29938ZM17.7006 1.29938C17.2348 0.83354 16.4795 0.83354 16.0137 1.29938L16.0844 1.37009C16.5112 0.943303 17.2031 0.943303 17.6299 1.37009L17.7006 1.29938ZM17.7006 2.98633C18.1665 2.52049 18.1665 1.76522 17.7006 1.29938L17.6299 1.37009C18.0567 1.79688 18.0567 2.48884 17.6299 2.91562L17.7006 2.98633ZM11.6516 9.03536L17.7006 2.98633L17.6299 2.91562L11.5809 8.96464L11.6516 9.03536ZM17.7006 15.0137L11.6516 8.96464L11.5809 9.03536L17.6299 15.0844L17.7006 15.0137ZM17.7006 16.7006C18.1665 16.2348 18.1665 15.4795 17.7006 15.0137L17.6299 15.0844C18.0567 15.5112 18.0567 16.2031 17.6299 16.6299L17.7006 16.7006ZM16.0137 16.7006C16.4795 17.1665 17.2348 17.1665 17.7006 16.7006L17.6299 16.6299C17.2031 17.0567 16.5112 17.0567 16.0844 16.6299L16.0137 16.7006ZM9.96464 10.6516L16.0137 16.7006L16.0844 16.6299L10.0354 10.5809L9.96464 10.6516ZM3.98633 16.7006L10.0354 10.6516L9.96464 10.5809L3.91562 16.6299L3.98633 16.7006ZM2.29938 16.7006C2.76522 17.1665 3.52049 17.1665 3.98633 16.7006L3.91562 16.6299C3.48884 17.0567 2.79688 17.0567 2.37009 16.6299L2.29938 16.7006ZM2.29938 15.0137C1.83354 15.4795 1.83354 16.2348 2.29938 16.7006L2.37009 16.6299C1.9433 16.2031 1.9433 15.5112 2.37009 15.0844L2.29938 15.0137ZM8.3484 8.96464L2.29938 15.0137L2.37009 15.0844L8.41911 9.03536L8.3484 8.96464ZM2.29938 2.98633L8.3484 9.03536L8.41911 8.96464L2.37009 2.91562L2.29938 2.98633ZM2.29938 1.29938C1.83354 1.76522 1.83354 2.52049 2.29938 2.98633L2.37009 2.91562C1.9433 2.48884 1.9433 1.79688 2.37009 1.37009L2.29938 1.29938ZM3.98633 1.29938C3.52049 0.83354 2.76522 0.83354 2.29938 1.29938L2.37009 1.37009C2.79688 0.943303 3.48884 0.943303 3.91562 1.37009L3.98633 1.29938ZM10.0354 7.3484L3.98633 1.29938L3.91562 1.37009L9.96464 7.41911L10.0354 7.3484Z" fill="white"/>
</mask>
<g mask="url(#mask0)">
<rect x="-20" y="-9" width="60" height="36" rx="8" fill="white"/>
</g>
</g>
<defs>
<filter id="filter0_d" x="0.950012" y="0.950195" width="18.1" height="18.1" filterUnits="userSpaceOnUse" color-interpolation-filters="sRGB">
<feFlood flood-opacity="0" result="BackgroundImageFix"/>
<feColorMatrix in="SourceAlpha" type="matrix" values="0 0 0 0 0 0 0 0 0 0 0 0 0 0 0 0 0 0 127 0"/>
<feOffset dy="1"/>
<feGaussianBlur stdDeviation="0.5"/>
<feColorMatrix type="matrix" values="0 0 0 0 0 0 0 0 0 0 0 0 0 0 0 0 0 0 0.2 0"/>
<feBlend mode="normal" in2="BackgroundImageFix" result="effect1_dropShadow"/>
<feBlend mode="normal" in="SourceGraphic" in2="effect1_dropShadow" result="shape"/>
</filter>
<filter id="filter1_d" x="0.950012" y="0.950195" width="18.1" height="18.1" filterUnits="userSpaceOnUse" color-interpolation-filters="sRGB">
<feFlood flood-opacity="0" result="BackgroundImageFix"/>
<feColorMatrix in="SourceAlpha" type="matrix" values="0 0 0 0 0 0 0 0 0 0 0 0 0 0 0 0 0 0 127 0"/>
<feOffset dy="1"/>
<feGaussianBlur stdDeviation="0.5"/>
<feColorMatrix type="matrix" values="0 0 0 0 0 0 0 0 0 0 0 0 0 0 0 0 0 0 0.2 0"/>
<feBlend mode="normal" in2="BackgroundImageFix" result="effect1_dropShadow"/>
<feBlend mode="normal" in="SourceGraphic" in2="effect1_dropShadow" result="shape"/>
</filter>
</defs>
</svg>
