<svg width="40" height="40" viewBox="0 0 40 40" fill="none" xmlns="http://www.w3.org/2000/svg">
<g filter="url(#filter0_d)">
<path d="M13.1216 19.2676C14.5649 19.2676 14.7838 18.6757 15.4324 18.6757C15.5865 18.6757 15.6919 18.7081 15.8865 18.8054L17.1351 19.4703C17.2973 19.5514 17.427 19.6324 17.5324 19.6973H17.5811C17.7676 19.0405 18.0514 18.627 18.5378 18.3027V18.2622L16.8514 17.3541C16.3 17.0622 16.2432 16.8189 16.2432 16.1378C16.2432 14.3946 14.8568 13 13.1216 13C11.3865 13 10 14.4027 10 16.1378C10 17.873 11.3865 19.2676 13.1216 19.2676ZM13.1216 17.9541C12.1243 17.9541 11.3297 17.127 11.3297 16.1378C11.3297 15.1243 12.1243 14.3216 13.1216 14.3216C14.127 14.3216 14.9297 15.1243 14.9297 16.1378C14.9297 17.127 14.127 17.9541 13.1216 17.9541ZM13.1216 28C14.8568 28 16.2432 26.6054 16.2432 24.8541C16.2432 24.2135 16.2838 23.9541 16.7622 23.6946L29.7676 16.7946C29.4513 15.6189 28.1784 15.4 26.2486 16.0973L19.6649 18.4568C18.7405 18.7973 18.3351 19.2595 18.0838 20.1108L17.9297 20.6784C17.8081 21.0838 17.6297 21.2784 17.0216 21.5946L15.8865 22.1946C15.6919 22.2919 15.5784 22.3243 15.4324 22.3243C14.7838 22.3243 14.5568 21.7243 13.1216 21.7243C11.3865 21.7243 10 23.1189 10 24.8541C10 26.5973 11.3865 28 13.1216 28ZM19.8351 20.7108C19.4946 20.7108 19.1946 20.427 19.1946 20.0703C19.1946 19.7054 19.4946 19.4297 19.8351 19.4297C20.1919 19.4297 20.4919 19.7054 20.4919 20.0703C20.4919 20.427 20.1919 20.7108 19.8351 20.7108ZM26.2405 24.9108C28.1865 25.6324 29.4513 25.3892 29.7676 24.1892L23.4676 20.8568L20.2405 22.5595V22.6486L26.2405 24.9108ZM13.1216 26.6703C12.1243 26.6703 11.3297 25.8595 11.3297 24.8541C11.3297 23.8568 12.1243 23.0459 13.1216 23.0459C14.127 23.0459 14.9297 23.8568 14.9297 24.8541C14.9297 25.8595 14.127 26.6703 13.1216 26.6703Z" fill="white"/>
</g>
<defs>
<filter id="filter0_d" x="3" y="6" width="33.7676" height="29" filterUnits="userSpaceOnUse" color-interpolation-filters="sRGB">
<feFlood flood-opacity="0" result="BackgroundImageFix"/>
<feColorMatrix in="SourceAlpha" type="matrix" values="0 0 0 0 0 0 0 0 0 0 0 0 0 0 0 0 0 0 127 0"/>
<feOffset/>
<feGaussianBlur stdDeviation="3.5"/>
<feColorMatrix type="matrix" values="0 0 0 0 0 0 0 0 0 0 0 0 0 0 0 0 0 0 0.4 0"/>
<feBlend mode="normal" in2="BackgroundImageFix" result="effect1_dropShadow"/>
<feBlend mode="normal" in="SourceGraphic" in2="effect1_dropShadow" result="shape"/>
</filter>
</defs>
</svg>
