<svg width="34" height="29" viewBox="0 0 34 29" fill="none" xmlns="http://www.w3.org/2000/svg">
<g filter="url(#filter0_d)">
<path d="M10.1216 13.2676C11.5649 13.2676 11.7838 12.6757 12.4324 12.6757C12.5865 12.6757 12.6919 12.7081 12.8865 12.8054L14.1351 13.4703C14.2973 13.5514 14.427 13.6324 14.5324 13.6973H14.5811C14.7676 13.0405 15.0514 12.627 15.5378 12.3027V12.2622L13.8514 11.3541C13.3 11.0622 13.2432 10.8189 13.2432 10.1378C13.2432 8.39459 11.8568 7 10.1216 7C8.38649 7 7 8.4027 7 10.1378C7 11.873 8.38649 13.2676 10.1216 13.2676ZM10.1216 11.9541C9.12432 11.9541 8.32973 11.127 8.32973 10.1378C8.32973 9.12432 9.12432 8.32162 10.1216 8.32162C11.127 8.32162 11.9297 9.12432 11.9297 10.1378C11.9297 11.127 11.127 11.9541 10.1216 11.9541ZM10.1216 22C11.8568 22 13.2432 20.6054 13.2432 18.8541C13.2432 18.2135 13.2838 17.9541 13.7622 17.6946L26.7676 10.7946C26.4513 9.61892 25.1784 9.4 23.2486 10.0973L16.6649 12.4568C15.7405 12.7973 15.3351 13.2595 15.0838 14.1108L14.9297 14.6784C14.8081 15.0838 14.6297 15.2784 14.0216 15.5946L12.8865 16.1946C12.6919 16.2919 12.5784 16.3243 12.4324 16.3243C11.7838 16.3243 11.5568 15.7243 10.1216 15.7243C8.38649 15.7243 7 17.1189 7 18.8541C7 20.5973 8.38649 22 10.1216 22ZM16.8351 14.7108C16.4946 14.7108 16.1946 14.427 16.1946 14.0703C16.1946 13.7054 16.4946 13.4297 16.8351 13.4297C17.1919 13.4297 17.4919 13.7054 17.4919 14.0703C17.4919 14.427 17.1919 14.7108 16.8351 14.7108ZM23.2405 18.9108C25.1865 19.6324 26.4513 19.3892 26.7676 18.1892L20.4676 14.8568L17.2405 16.5595V16.6486L23.2405 18.9108ZM10.1216 20.6703C9.12432 20.6703 8.32973 19.8595 8.32973 18.8541C8.32973 17.8568 9.12432 17.0459 10.1216 17.0459C11.127 17.0459 11.9297 17.8568 11.9297 18.8541C11.9297 19.8595 11.127 20.6703 10.1216 20.6703Z" fill="white"/>
</g>
<defs>
<filter id="filter0_d" x="0" y="0" width="33.7676" height="29" filterUnits="userSpaceOnUse" color-interpolation-filters="sRGB">
<feFlood flood-opacity="0" result="BackgroundImageFix"/>
<feColorMatrix in="SourceAlpha" type="matrix" values="0 0 0 0 0 0 0 0 0 0 0 0 0 0 0 0 0 0 127 0"/>
<feOffset/>
<feGaussianBlur stdDeviation="3.5"/>
<feColorMatrix type="matrix" values="0 0 0 0 0 0 0 0 0 0 0 0 0 0 0 0 0 0 0.4 0"/>
<feBlend mode="normal" in2="BackgroundImageFix" result="effect1_dropShadow"/>
<feBlend mode="normal" in="SourceGraphic" in2="effect1_dropShadow" result="shape"/>
</filter>
</defs>
</svg>
