<svg width="18" height="18" viewBox="0 0 18 18" fill="none" xmlns="http://www.w3.org/2000/svg">
<path fill-rule="evenodd" clip-rule="evenodd" d="M16.2535 0.75344C15.9156 0.41552 15.3677 0.41552 15.0298 0.75344L14.146 1.63724L16.3215 3.81273L17.2053 2.92894C17.5432 2.59102 17.5432 2.04314 17.2053 1.70522L16.2535 0.75344ZM8.16819 2.36408C8.61234 2.36408 8.9724 2.71958 8.9724 3.15812C8.9724 3.59665 8.61234 3.95216 8.16819 3.95216H2.10844V15.7745H14.0824V9.75632C14.0824 9.31778 14.4424 8.96228 14.8866 8.96228C15.3307 8.96228 15.6908 9.31778 15.6908 9.75632V15.7745C15.6908 16.6516 14.9707 17.3626 14.0824 17.3626H2.10844C1.22012 17.3626 0.5 16.6516 0.5 15.7745V3.95216C0.5 3.07509 1.22012 2.36408 2.10844 2.36408H8.16819ZM13.3302 2.45305L15.5057 4.62854L8.43208 11.7022C8.29764 11.8366 8.12266 11.923 7.93419 11.9481L5.71595 12.2428L6.01068 10.0245C6.03572 9.83607 6.12214 9.6611 6.25658 9.52666L13.3302 2.45305Z" fill="white"/>
</svg>
