<svg width="22" height="20" viewBox="0 0 22 20" fill="none" xmlns="http://www.w3.org/2000/svg">
<path fill-rule="evenodd" clip-rule="evenodd" d="M11.3541 18.9372C11.1108 19.0958 10.7724 19.2439 10.5503 19.2439C10.3281 19.2439 10.0003 19.0958 9.74645 18.9372C4.13037 15.3306 0.555542 11.1318 0.555542 6.86951C0.555542 3.28411 3.01985 0.756348 6.27738 0.756348C8.14941 0.756348 9.66183 1.64477 10.5503 2.97739C11.4598 1.63419 12.9511 0.756348 14.8231 0.756348C18.0807 0.756348 20.5555 3.28411 20.5555 6.86951C20.5555 11.1318 16.9701 15.3306 11.3541 18.9372ZM10.3493 17.2873C10.4445 17.3507 10.5185 17.393 10.5502 17.393C10.5926 17.393 10.656 17.3507 10.7512 17.2873C14.95 14.4951 18.7893 10.5183 18.7893 6.85891C18.7893 4.24653 17.097 2.50142 14.802 2.50142C12.9511 2.50142 11.9358 3.66483 11.2483 4.62728C10.9522 5.01861 10.8041 5.1561 10.5502 5.1561C10.307 5.1561 10.1272 5.02919 9.85221 4.62728C9.21762 3.64368 8.15998 2.50142 6.30911 2.50142C4.01402 2.50142 2.31122 4.24653 2.31122 6.85891C2.31122 10.5183 6.15046 14.4951 10.3493 17.2873Z" fill="white"/>
</svg>
