<svg width="5" height="15" viewBox="0 0 5 15" fill="none" xmlns="http://www.w3.org/2000/svg">
<path d="M2.59277 0.554688L0.342772 6.20605C0.184569 6.61035 -9.21594e-07 7.06738 -8.77117e-07 7.44531C-8.31607e-07 7.83203 0.18457 8.29785 0.342773 8.69336L2.59277 14.3447C2.72461 14.6787 3.02344 14.8984 3.35742 14.8984C3.88477 14.8984 4.28027 14.5117 4.28027 14.002C4.28027 13.7383 4.13086 13.3779 4.03418 13.1406L1.77539 7.44531L4.03418 1.75879C4.13086 1.5127 4.28027 1.16992 4.28027 0.897461C4.28027 0.387695 3.88476 0.000976588 3.35742 0.000976622C3.02344 0.000976644 2.72461 0.211914 2.59277 0.554688Z" fill="black"/>
</svg>
