<svg width="172" height="40" viewBox="0 0 172 40" fill="none" xmlns="http://www.w3.org/2000/svg">
<path d="M60.4595 6.62304C55.1917 4.25841 49.0316 5.2079 44.7145 9.04991C43.9099 9.77734 43.17 10.5736 42.503 11.4296C41.7733 12.3304 38.4931 17.2387 37.6001 18.7077C36.6527 20.2686 35.7127 21.8964 34.7232 23.6855C33.6719 25.5863 32.3732 27.8767 32.0343 28.373C28.3892 33.7324 21.6877 36.0829 15.5077 34.1695C9.32775 32.2561 5.11248 26.5257 5.11248 20.0378C5.11248 13.5499 9.32775 7.81945 15.5077 5.90609C21.6877 3.99272 28.3892 6.3432 32.0343 11.7026C32.8288 12.8716 34.4175 13.1732 35.5829 12.3763C36.7482 11.5794 37.0489 9.98567 36.2545 8.81665C32.6299 3.48467 26.6543 0.245314 20.2219 0.125511C13.7895 0.00570895 7.69815 3.02032 3.87881 8.21366C-1.29285 15.242 -1.29294 24.8314 3.87858 31.8599C9.0501 38.8883 18.185 41.7139 26.4042 38.8274C30.4145 37.4318 33.8683 34.7747 36.252 31.2515C36.858 30.3607 38.6539 27.1298 39.1883 26.1596C40.1431 24.4225 41.0509 22.8617 41.9613 21.3629C42.9161 19.7872 46.0527 15.1593 46.4906 14.6109C46.9772 13.9816 47.5177 13.3963 48.1059 12.8614C51.9418 9.44641 57.7814 9.67904 61.3352 13.3884C64.8891 17.0979 64.8891 22.9604 61.3352 26.6698C57.7814 30.3792 51.9418 30.6118 48.1059 27.1968C47.4236 26.5891 46.47 26.3927 45.6042 26.6815C44.7384 26.9704 44.092 27.7006 43.9085 28.5972C43.725 29.4938 44.0322 30.4205 44.7145 31.0282C49.0313 34.8697 55.193 35.8138 60.4562 33.4401C65.7194 31.0664 69.105 25.8164 69.1057 20.0277C69.1064 14.2389 65.7221 8.98813 60.4595 6.61312V6.62304Z" fill="url(#paint0_linear)"/>
<path fill-rule="evenodd" clip-rule="evenodd" d="M170.373 11.1645C169.053 10.6543 167.57 11.3142 167.061 12.6385L160.134 30.6464L152.303 12.5318C152.297 12.5154 152.289 12.4996 152.28 12.4847C151.868 11.5618 150.953 10.968 149.945 10.9685H141.965V2.65065C141.994 1.7136 141.512 0.834988 140.708 0.357852C139.903 -0.119284 138.904 -0.119284 138.099 0.357852C137.295 0.834988 136.813 1.7136 136.842 2.65065V31.1055C136.848 36.0121 140.809 39.9895 145.7 39.9991C147.116 39.9991 148.263 38.8481 148.263 37.4283C148.263 36.0085 147.116 34.8575 145.7 34.8575C143.635 34.8561 141.96 33.1775 141.958 31.1055V16.1175H148.263L157.911 38.4506C158.316 39.3902 159.24 39.9985 160.261 39.9991H160.312C161.352 39.9773 162.276 39.3273 162.65 38.3539L171.825 14.4872C172.337 13.1675 171.687 11.6811 170.373 11.1645ZM131.353 11.1407C130.712 10.9129 130.008 10.9503 129.395 11.2445C128.782 11.5388 128.31 12.0657 128.085 12.7089L122.148 29.568L116.484 12.8032L116.461 12.7387C116.455 12.7226 116.45 12.7058 116.444 12.6891C116.439 12.6723 116.433 12.6556 116.427 12.6395L116.385 12.5427C116.373 12.5102 116.359 12.4786 116.343 12.4484L116.306 12.3715C116.271 12.3045 116.231 12.24 116.192 12.1755L116.192 12.1754C116.175 12.148 116.157 12.1215 116.137 12.096L116.058 11.9844L115.996 11.9099C115.874 11.7642 115.736 11.632 115.586 11.5154C115.561 11.4994 115.537 11.482 115.514 11.4632L115.432 11.4087C115.343 11.3512 115.251 11.299 115.155 11.2523C115.135 11.2404 115.113 11.2304 115.091 11.2225C115.007 11.1828 114.918 11.1506 114.829 11.1183C114.463 10.9978 114.075 10.963 113.693 11.0166C113.655 11.0166 113.617 11.0245 113.578 11.0327L113.578 11.0327C113.564 11.0357 113.55 11.0387 113.535 11.0414L113.419 11.0687L113.315 11.096L113.213 11.1307L113.114 11.1655L113.018 11.2052L112.924 11.2474L112.847 11.2871C112.779 11.3218 112.713 11.3598 112.649 11.4012L112.573 11.4533C112.531 11.4831 112.486 11.5154 112.447 11.5476L112.387 11.5948C112.241 11.7171 112.109 11.8552 111.994 12.0067L111.942 12.0811L111.888 12.163C111.828 12.2511 111.776 12.3441 111.732 12.4409C111.719 12.4612 111.709 12.4829 111.702 12.5055C111.662 12.5908 111.627 12.6787 111.598 12.7685V12.7735L106.156 29.558L99.9817 12.6792C99.7664 12.0923 99.3451 11.6044 98.7968 11.3069L98.7745 11.2846C98.7127 11.2523 98.6483 11.2225 98.5865 11.1952L98.5271 11.1704C98.4727 11.1481 98.4183 11.1283 98.3614 11.1109L98.2773 11.0836L98.1264 11.0464L98.0275 11.0265L97.879 11.0042H97.7702H97.6317H97.5673H89.5823V8.97435C89.585 6.90196 91.2591 5.22264 93.325 5.2199C94.2591 5.24902 95.1349 4.76574 95.6106 3.95874C96.0862 3.15173 96.0862 2.14897 95.6106 1.34197C95.1349 0.534964 94.2591 0.0516804 93.325 0.0808037C88.4304 0.0862711 84.4636 4.06444 84.4568 8.97435V37.4292C84.4568 38.849 85.6042 40 87.0195 40C88.4349 40 89.5823 38.849 89.5823 37.4292V16.1333H95.7863L103.88 38.3126C104.25 39.3256 105.211 39.9994 106.287 40H106.334C107.426 39.9798 108.385 39.2676 108.724 38.2258L114.082 21.7067L119.672 38.2481C120.025 39.2825 120.992 39.9795 122.082 39.9851H122.099C123.185 39.9849 124.152 39.2977 124.513 38.2704L132.906 14.4038C133.371 13.0726 132.677 11.6153 131.353 11.1407ZM132.798 39.8179C134.094 39.8179 135.145 38.7636 135.145 37.463C135.145 36.1624 134.094 35.1081 132.798 35.1081C131.501 35.1081 130.45 36.1624 130.45 37.463C130.45 38.7636 131.501 39.8179 132.798 39.8179Z" fill="url(#paint1_linear)"/>
<defs>
<linearGradient id="paint0_linear" x1="-23.6734" y1="11.1391" x2="-7.07039" y2="61.2855" gradientUnits="userSpaceOnUse">
<stop stop-color="#FF720D"/>
<stop offset="1" stop-color="#FE177A"/>
</linearGradient>
<linearGradient id="paint1_linear" x1="48.3799" y1="18.2421" x2="74.3995" y2="80.6756" gradientUnits="userSpaceOnUse">
<stop stop-color="#FF720D"/>
<stop offset="0.50153" stop-color="#FE177A"/>
<stop offset="1" stop-color="#A40FF4"/>
</linearGradient>
</defs>
</svg>
