<svg width="40" height="40" viewBox="0 0 40 40" fill="none" xmlns="http://www.w3.org/2000/svg">
<path d="M16.7237 29.8908C18.189 29.8908 20.387 28.8073 20.387 25.9283V17.0025C20.387 16.5072 20.4592 16.4349 20.8926 16.3421L25.5361 15.3205C25.8972 15.2483 26.1243 14.9593 26.1243 14.6085V10.9453C26.1243 10.3777 25.6702 10.0166 25.1233 10.1301L19.9536 11.2548C19.2725 11.3993 18.9113 11.7605 18.9113 12.3486L18.9629 23.1835C18.9629 23.6272 18.7669 23.9161 18.3748 23.9987L16.8166 24.3186C14.8044 24.7416 13.8757 25.7632 13.8757 27.2801C13.8757 28.8279 15.0727 29.8908 16.7237 29.8908Z" fill="white"/>
</svg>
