<svg width="14" height="20" viewBox="0 0 14 20" fill="none" xmlns="http://www.w3.org/2000/svg">
<path d="M3.72375 19.8908C5.18903 19.8908 7.38695 18.8073 7.38695 15.9283V7.00246C7.38695 6.50716 7.45918 6.43493 7.89258 6.34206L12.5361 5.32049C12.8972 5.24825 13.1243 4.95932 13.1243 4.60848V0.945278C13.1243 0.377739 12.6702 0.0165785 12.1233 0.130086L6.95356 1.25484C6.27251 1.39931 5.91135 1.76047 5.91135 2.34865L5.96294 13.1835C5.96294 13.6272 5.76688 13.9161 5.37477 13.9987L3.81662 14.3186C1.80443 14.7416 0.875732 15.7632 0.875732 17.2801C0.875732 18.8279 2.07272 19.8908 3.72375 19.8908Z" fill="white"/>
</svg>
