<svg width="20" height="20" viewBox="0 0 20 20" fill="none" xmlns="http://www.w3.org/2000/svg">
<path d="M10 20C15.4865 20 20 15.4865 20 10C20 4.51354 15.4865 0 10 0C4.51354 0 0 4.51354 0 10C0 15.4865 4.51354 20 10 20ZM10 17.5527C5.81745 17.5527 2.44734 14.1825 2.44734 10C2.44734 5.80742 5.80742 2.43731 10 2.43731C14.1825 2.43731 17.5527 5.80742 17.5627 10C17.5627 14.1825 14.1926 17.5527 10 17.5527ZM6.85055 14.1926C7.16148 14.1926 7.41224 14.0822 7.64293 13.8415L13.8215 7.61284C14.0522 7.38215 14.1725 7.11133 14.1725 6.83049C14.1725 6.24875 13.7011 5.79739 13.1394 5.79739C12.8586 5.79739 12.5878 5.91775 12.3571 6.14845L6.17854 12.3771C5.94784 12.6078 5.83751 12.8786 5.83751 13.1595C5.83751 13.7312 6.26881 14.1926 6.85055 14.1926Z" fill="white"/>
</svg>
