<svg width="40" height="40" viewBox="0 0 40 40" fill="none" xmlns="http://www.w3.org/2000/svg">
<path fill-rule="evenodd" clip-rule="evenodd" d="M20 1C9.50659 1 1 9.50659 1 20C1 30.4934 9.50659 39 20 39C30.4934 39 39 30.4934 39 20C39 9.50659 30.4934 1 20 1Z" fill="black" fill-opacity="0.1"/>
<path d="M16.25 28.0674C15.5179 28.0674 15 27.5018 15 26.5896V13.5451C15 12.6421 15.5179 12.0674 16.25 12.0674C16.5833 12.0674 16.8814 12.1755 17.232 12.3725L27.9107 18.6808C28.6786 19.1461 29 19.4927 29 20.0674C29 20.6421 28.6786 20.9978 27.9107 21.4539L17.3661 27.6843C16.9554 27.9306 16.625 28.0674 16.25 28.0674Z" fill="white"/>
</svg>
