<svg width="40" height="40" viewBox="0 0 40 40" fill="none" xmlns="http://www.w3.org/2000/svg">
<path d="M11 22.8741C11 27.2013 13.7114 30 18.0351 30H20.5205C21.3216 30 21.9173 29.3541 21.9173 28.5576C21.9173 27.761 21.3319 27.1152 20.5205 27.1152H18.1995C15.3751 27.1152 13.7011 25.3283 13.7011 22.8095C13.7011 20.3014 15.3751 18.5361 18.1995 18.5361H23.6324L25.82 18.4284L24.3308 19.7201L22.3178 21.7761C22.0611 22.0344 21.8865 22.3466 21.8865 22.7879C21.8865 23.5845 22.4205 24.1658 23.2216 24.1658C23.5708 24.1658 23.9405 24.0043 24.2076 23.7244L29.5892 18.1485C29.8459 17.8902 30 17.4812 30 17.0936C30 16.6954 29.8459 16.2971 29.5892 16.028L24.2076 10.4521C23.9405 10.1615 23.5708 10 23.2216 10C22.4205 10 21.8865 10.592 21.8865 11.3778C21.8865 11.8192 22.0611 12.1421 22.3178 12.4004L24.3308 14.4564L25.82 15.7481L23.6324 15.6512H18.1173C13.7524 15.6512 11 18.5899 11 22.8741Z" fill="#2b2b2b"/>
</svg>
