<svg width="5" height="16" viewBox="0 0 5 16" fill="none" xmlns="http://www.w3.org/2000/svg">
<path d="M1.94678 14.8711L4.19678 9.21973C4.35498 8.81543 4.53955 8.3584 4.53955 7.98047C4.53955 7.59375 4.35498 7.12793 4.19678 6.73242L1.94678 1.08105C1.81494 0.74707 1.51611 0.527344 1.18213 0.527344C0.654785 0.527344 0.259277 0.914062 0.259277 1.42383C0.259277 1.6875 0.408691 2.04785 0.505371 2.28516L2.76416 7.98047L0.505371 13.667C0.408691 13.9131 0.259277 14.2559 0.259277 14.5283C0.259277 15.0381 0.654785 15.4248 1.18213 15.4248C1.51611 15.4248 1.81494 15.2139 1.94678 14.8711Z" fill="black"/>
</svg>
