<svg width="40" height="40" viewBox="0 0 40 40" fill="none" xmlns="http://www.w3.org/2000/svg">
<path fill-rule="evenodd" clip-rule="evenodd" d="M17 11C17 10.4477 17.4477 10 18 10H22C22.5523 10 23 10.4477 23 11V15C23 15.5523 22.5523 16 22 16H18C17.4477 16 17 15.5523 17 15V11ZM17 18C17 17.4477 17.4477 17 18 17H22C22.5523 17 23 17.4477 23 18V22C23 22.5523 22.5523 23 22 23H18C17.4477 23 17 22.5523 17 22V18ZM18 24C17.4477 24 17 24.4477 17 25V29C17 29.5523 17.4477 30 18 30H22C22.5523 30 23 29.5523 23 29V25C23 24.4477 22.5523 24 22 24H18Z" fill="white"/>
</svg>
