<svg width="19" height="19" viewBox="0 0 19 19" fill="none" xmlns="http://www.w3.org/2000/svg">
<path fill-rule="evenodd" clip-rule="evenodd" d="M18.011 16.8026C18.011 17.5709 17.4395 18.1799 16.6618 18.1799C16.2871 18.1799 15.9404 18.0487 15.6687 17.7864L11.5651 13.6734C10.4033 14.4416 9.00736 14.8913 7.51769 14.8913C3.46091 14.8913 0.144287 11.5747 0.144287 7.51794C0.144287 3.46116 3.46091 0.144531 7.51769 0.144531C11.5745 0.144531 14.8911 3.46116 14.8911 7.51794C14.8911 9.09193 14.3945 10.5535 13.5513 11.7434L17.6268 15.8376C17.8892 16.0999 18.011 16.4466 18.011 16.8026ZM2.11178 7.51794C2.11178 10.4879 4.54772 12.9238 7.51769 12.9238C10.4877 12.9238 12.9236 10.4879 12.9236 7.51794C12.9236 4.55733 10.4877 2.11202 7.51769 2.11202C4.54772 2.11202 2.11178 4.55733 2.11178 7.51794Z" fill="white"/>
</svg>
