<svg width="34" height="33" viewBox="0 0 34 33" fill="none" xmlns="http://www.w3.org/2000/svg">
<g filter="url(#filter0_d)">
<path fill-rule="evenodd" clip-rule="evenodd" d="M9.29583 21.0321H12.1557C12.243 21.0321 12.3108 21.0627 12.3787 21.1238L16.7994 25.2769C17.3229 25.7655 17.73 25.9996 18.2535 25.9996C19.0097 25.9996 19.572 25.4092 19.572 24.6254V8.47099C19.572 7.67701 19.0097 7.0459 18.2438 7.0459C17.7203 7.0459 17.3616 7.2902 16.7994 7.80934L12.3787 11.9421C12.3108 12.0032 12.243 12.0337 12.1557 12.0337H9.29583C7.81257 12.0337 7.0564 12.8379 7.0564 14.4971V18.5688C7.0564 20.228 7.81257 21.0321 9.29583 21.0321ZM9.48002 19.149C9.14071 19.149 8.97591 18.9759 8.97591 18.6197V14.4462C8.97591 14.0899 9.14071 13.9169 9.48002 13.9169H12.621C12.862 13.9169 13.0389 13.8795 13.231 13.7214L17.3423 9.80447C17.3907 9.76375 17.4489 9.72303 17.5071 9.72303C17.5846 9.72303 17.6525 9.78411 17.6525 9.87572V23.1596C17.6525 23.2614 17.5943 23.3225 17.5071 23.3225C17.4586 23.3225 17.4004 23.2919 17.352 23.241L13.3287 19.4238C13.0961 19.1999 12.9022 19.149 12.621 19.149H9.48002ZM23.4013 19.6274C23.0232 20.2382 23.1105 20.8489 23.6049 21.195C24.0315 21.4902 24.5937 21.3884 24.9137 20.9304C25.7183 19.7903 26.1933 18.1718 26.1933 16.5126C26.1933 14.8432 25.7183 13.245 24.9137 12.0846C24.5937 11.6265 24.0315 11.5248 23.6049 11.82C23.1105 12.1762 23.0135 12.787 23.411 13.3977C23.9442 14.1917 24.2641 15.3521 24.2641 16.5126C24.2641 17.6832 23.9345 18.8334 23.4013 19.6274Z" fill="white"/>
</g>
<defs>
<filter id="filter0_d" x="0.0563965" y="0.0458984" width="33.1369" height="32.9537" filterUnits="userSpaceOnUse" color-interpolation-filters="sRGB">
<feFlood flood-opacity="0" result="BackgroundImageFix"/>
<feColorMatrix in="SourceAlpha" type="matrix" values="0 0 0 0 0 0 0 0 0 0 0 0 0 0 0 0 0 0 127 0"/>
<feOffset/>
<feGaussianBlur stdDeviation="3.5"/>
<feColorMatrix type="matrix" values="0 0 0 0 0 0 0 0 0 0 0 0 0 0 0 0 0 0 0.4 0"/>
<feBlend mode="normal" in2="BackgroundImageFix" result="effect1_dropShadow"/>
<feBlend mode="normal" in="SourceGraphic" in2="effect1_dropShadow" result="shape"/>
</filter>
</defs>
</svg>
