<svg width="33" height="35" viewBox="0 0 33 35" fill="none" xmlns="http://www.w3.org/2000/svg">
<g filter="url(#filter0_d)">
<path fill-rule="evenodd" clip-rule="evenodd" d="M9.0647 8.05243C8.67081 7.64008 8.01238 7.64008 7.61849 8.05243L7.42796 8.25189C7.05876 8.63838 7.05876 9.24687 7.42796 9.63336L24.0198 27.0027C24.4137 27.415 25.0721 27.415 25.466 27.0027L25.6566 26.8032C26.0258 26.4167 26.0258 25.8082 25.6566 25.4217L9.0647 8.05243ZM7.25859 15.6758C7.25859 14.2637 7.82028 13.4848 8.92484 13.3063L10.6461 15.1083H9.63616C9.3033 15.1083 9.14163 15.2775 9.14163 15.626V19.7079C9.14163 20.0563 9.3033 20.2256 9.63616 20.2256H12.7175C12.9933 20.2256 13.1835 20.2753 13.4117 20.4944L17.3584 24.2278C17.406 24.2776 17.463 24.3074 17.5106 24.3074C17.5962 24.3074 17.6532 24.2477 17.6532 24.1482V22.4437L19.5363 24.415V25.5818C19.5363 26.3484 18.9847 26.9258 18.2429 26.9258C17.7293 26.9258 17.3299 26.6968 16.8163 26.219L12.4797 22.157C12.4131 22.0973 12.3465 22.0674 12.261 22.0674H9.45545C8.00039 22.0674 7.25859 21.2809 7.25859 19.6581V15.6758ZM17.6532 11.1558V15.1962L19.5363 17.1674V9.78192C19.5363 9.00537 18.9847 8.3881 18.2334 8.3881C17.7198 8.3881 17.3679 8.62704 16.8163 9.13479L14.1961 11.577L15.4501 12.8898L17.3489 11.0861C17.3965 11.0463 17.4535 11.0065 17.5106 11.0065C17.5867 11.0065 17.6532 11.0662 17.6532 11.1558ZM23.1655 20.9667L24.4726 22.335C24.5741 22.2674 24.6667 22.1776 24.7446 22.0664C25.534 20.9513 26 19.3683 26 17.7455C26 16.1128 25.534 14.5497 24.7446 13.4148C24.4308 12.9667 23.8792 12.8672 23.4608 13.1559C22.9757 13.5044 22.8806 14.1017 23.2706 14.6991C23.7936 15.4756 24.1075 16.6106 24.1075 17.7455C24.1075 18.8905 23.7841 20.0155 23.2611 20.792C23.2249 20.8503 23.193 20.9086 23.1655 20.9667Z" fill="white"/>
</g>
<defs>
<filter id="filter0_d" x="0.151062" y="0.743164" width="32.8489" height="33.5688" filterUnits="userSpaceOnUse" color-interpolation-filters="sRGB">
<feFlood flood-opacity="0" result="BackgroundImageFix"/>
<feColorMatrix in="SourceAlpha" type="matrix" values="0 0 0 0 0 0 0 0 0 0 0 0 0 0 0 0 0 0 127 0"/>
<feOffset/>
<feGaussianBlur stdDeviation="3.5"/>
<feColorMatrix type="matrix" values="0 0 0 0 0 0 0 0 0 0 0 0 0 0 0 0 0 0 0.4 0"/>
<feBlend mode="normal" in2="BackgroundImageFix" result="effect1_dropShadow"/>
<feBlend mode="normal" in="SourceGraphic" in2="effect1_dropShadow" result="shape"/>
</filter>
</defs>
</svg>
