<svg width="20" height="19" viewBox="0 0 20 19" fill="none" xmlns="http://www.w3.org/2000/svg">
<path fill-rule="evenodd" clip-rule="evenodd" d="M10.0263 0C10.317 0 10.5526 0.23564 10.5526 0.526316V18.4211C10.5526 18.7118 10.317 18.9474 10.0263 18.9474C9.73564 18.9474 9.5 18.7118 9.5 18.4211V0.526315C9.5 0.235639 9.73564 0 10.0263 0ZM2 4H8.42105V14.5263H2C0.895431 14.5263 0 13.6309 0 12.5263V6C0 4.89543 0.895431 4 2 4ZM18 14.5263H11.5789V4H18C19.1046 4 20 4.89543 20 6V12.5263C20 13.6309 19.1046 14.5263 18 14.5263Z" fill="white"/>
</svg>
