<svg width="18" height="18" viewBox="0 0 18 18" fill="none" xmlns="http://www.w3.org/2000/svg">
<path fill-rule="evenodd" clip-rule="evenodd" d="M15.0714 0.5C16.4127 0.5 17.5 1.45139 17.5 2.625V11.4071C17.5 11.692 17.3785 11.9633 17.1661 12.153L11.4634 17.2459C11.2801 17.4095 11.043 17.5 10.7973 17.5H2.92857C1.58731 17.5 0.5 16.5486 0.5 15.375V2.625C0.5 1.45139 1.58731 0.5 2.92857 0.5H15.0714ZM15.0714 2H2.92857C2.37449 2 2 2.32768 2 2.625V15.375C2 15.6723 2.37449 16 2.92857 16H10.499L10.4995 13.7323C9.8564 13.8993 9.23849 13.9837 8.6452 13.9837C7.31721 13.9837 5.8658 13.561 4.28481 12.7349C3.79532 12.4791 3.60584 11.875 3.86161 11.3855C4.11737 10.896 4.72152 10.7065 5.21101 10.9623C6.52662 11.6497 7.6734 11.9837 8.6452 11.9837C9.20565 11.9837 9.82429 11.8726 10.5 11.6467L10.5 11.4288C10.5 10.431 10.9377 10.0414 11.8768 10.0032L12.038 10L16 9.999V2.625C16 2.32768 15.6255 2 15.0714 2ZM5.5 8C6.32843 8 7 7.32843 7 6.5C7 5.67157 6.32843 5 5.5 5C4.67157 5 4 5.67157 4 6.5C4 7.32843 4.67157 8 5.5 8ZM14.0783 6.5C14.0783 7.32843 13.4067 8 12.5783 8C11.7499 8 11.0783 7.32843 11.0783 6.5C11.0783 5.67157 11.7499 5 12.5783 5C13.4067 5 14.0783 5.67157 14.0783 6.5Z" fill="white"/>
</svg>
