<svg width="22" height="14" viewBox="0 0 22 14" fill="none" xmlns="http://www.w3.org/2000/svg">
<path fill-rule="evenodd" clip-rule="evenodd" d="M11.6641 13.0205C11.6641 13.5283 11.3027 13.8506 10.7559 13.8506C10.2578 13.8506 10.0039 13.6357 9.81836 13.0889L8.67578 9.93457H3.27539L2.13281 13.0889C1.94727 13.6357 1.69336 13.8506 1.18555 13.8506C0.638672 13.8506 0.306641 13.5381 0.306641 13.0303C0.306641 12.8643 0.335938 12.708 0.414062 12.4932L4.69141 1.07715C4.91602 0.452148 5.33594 0.149414 5.98047 0.149414C6.63477 0.149414 7.05469 0.452148 7.28906 1.08691L11.5566 12.4736C11.625 12.6885 11.6641 12.8447 11.6641 13.0205ZM3.74414 8.43066H8.19727L6 2.27832H5.94141L3.74414 8.43066ZM20.873 13.8408C21.3613 13.8408 21.6934 13.5186 21.6934 12.9814V4.27051C21.6934 3.74316 21.3613 3.40137 20.873 3.40137C20.4043 3.40137 20.0723 3.74316 20.0723 4.27051V5.51074H20.0039C19.4473 4.20215 18.1875 3.4209 16.6543 3.4209C14.1348 3.4209 12.4551 5.51074 12.4551 8.62598C12.4551 11.7607 14.1348 13.8311 16.6543 13.8311C18.2363 13.8311 19.4473 13.0889 20.0039 11.7607H20.0723V13.001C20.0723 13.5283 20.4043 13.8408 20.873 13.8408ZM14.1934 8.62598C14.1934 10.9307 15.3164 12.3857 17.084 12.3857C18.8711 12.3857 20.0234 10.9307 20.0234 8.64551C20.0234 6.37012 18.8613 4.86621 17.084 4.86621C15.3164 4.86621 14.1934 6.32129 14.1934 8.62598Z" fill="#666"/>
</svg>
