<svg width="18" height="20" viewBox="0 0 18 20" fill="none" xmlns="http://www.w3.org/2000/svg">
<path fill-rule="evenodd" clip-rule="evenodd" d="M12.8283 19.6229C14.0492 19.6229 14.7658 18.9771 14.8189 17.7562L15.394 5.00747H16.6857C17.128 5.00747 17.4731 4.66243 17.4731 4.22008C17.4731 3.78657 17.128 3.44153 16.6857 3.44153H12.7575V2.23832C12.7575 0.875865 11.8197 0 10.3157 0H7.15732C5.65331 0 4.71551 0.875865 4.71551 2.23832V3.44153H0.787393C0.353885 3.44153 0 3.78657 0 4.22008C0 4.66243 0.353885 5.00747 0.787393 5.00747H2.09677L2.66298 17.7562C2.71607 18.9771 3.43268 19.6229 4.65358 19.6229H12.8283ZM11.112 3.44153H6.37877V2.31794C6.37877 1.83135 6.7415 1.48632 7.26348 1.48632H10.2184C10.7404 1.48632 11.1031 1.83135 11.1031 2.31794L11.112 3.44153ZM5.02516 16.4556C5.04286 16.8538 5.29058 17.1457 5.62677 17.1457C5.9895 17.1457 6.24607 16.8361 6.23722 16.4468L5.90103 6.90075C5.88333 6.52917 5.60907 6.21952 5.27288 6.21952C4.92784 6.21952 4.65358 6.52033 4.66243 6.9096L5.02516 16.4556ZM8.74095 17.1457C8.40476 17.1457 8.11281 16.8361 8.11281 16.4556V6.90075C8.11281 6.52917 8.40476 6.21952 8.74095 6.21952C9.07714 6.21952 9.37794 6.52917 9.37794 6.90075L9.3691 16.4556C9.3691 16.8361 9.07714 17.1457 8.74095 17.1457ZM11.2447 16.4468C11.2358 16.8361 11.4924 17.1457 11.8551 17.1457C12.1913 17.1457 12.4479 16.8538 12.4567 16.4556L12.8283 6.9096C12.8372 6.52033 12.5629 6.21952 12.2179 6.21952C11.8817 6.21952 11.5986 6.52917 11.5897 6.90075L11.2447 16.4468Z" fill="white"/>
</svg>
