<svg width="40" height="40" viewBox="0 0 40 40" fill="none" xmlns="http://www.w3.org/2000/svg">
<path fill-rule="evenodd" clip-rule="evenodd" d="M23.8283 29.6229C25.0492 29.6229 25.7658 28.9771 25.8189 27.7562L26.394 15.0075H27.6857C28.128 15.0075 28.4731 14.6624 28.4731 14.2201C28.4731 13.7866 28.128 13.4415 27.6857 13.4415H23.7575V12.2383C23.7575 10.8759 22.8197 10 21.3157 10H18.1573C16.6533 10 15.7155 10.8759 15.7155 12.2383V13.4415H11.7874C11.3539 13.4415 11 13.7866 11 14.2201C11 14.6624 11.3539 15.0075 11.7874 15.0075H13.0968L13.663 27.7562C13.7161 28.9771 14.4327 29.6229 15.6536 29.6229H23.8283ZM22.112 13.4415H17.3788V12.3179C17.3788 11.8314 17.7415 11.4863 18.2635 11.4863H21.2184C21.7404 11.4863 22.1031 11.8314 22.1031 12.3179L22.112 13.4415ZM16.0252 26.4556C16.0429 26.8538 16.2906 27.1457 16.6268 27.1457C16.9895 27.1457 17.2461 26.8361 17.2372 26.4468L16.901 16.9008C16.8833 16.5292 16.6091 16.2195 16.2729 16.2195C15.9278 16.2195 15.6536 16.5203 15.6624 16.9096L16.0252 26.4556ZM19.741 27.1457C19.4048 27.1457 19.1128 26.8361 19.1128 26.4556V16.9008C19.1128 16.5292 19.4048 16.2195 19.741 16.2195C20.0771 16.2195 20.3779 16.5292 20.3779 16.9008L20.3691 26.4556C20.3691 26.8361 20.0771 27.1457 19.741 27.1457ZM22.2447 26.4468C22.2358 26.8361 22.4924 27.1457 22.8551 27.1457C23.1913 27.1457 23.4479 26.8538 23.4567 26.4556L23.8283 16.9096C23.8372 16.5203 23.5629 16.2195 23.2179 16.2195C22.8817 16.2195 22.5986 16.5292 22.5897 16.9008L22.2447 26.4468Z" fill="white"/>
</svg>
