<svg width="40" height="40" viewBox="0 0 40 40" fill="none" xmlns="http://www.w3.org/2000/svg">
<path d="M30 22.8741C30 27.2013 27.2886 30 22.9649 30H20.4795C19.6784 30 19.0827 29.3541 19.0827 28.5576C19.0827 27.761 19.6681 27.1152 20.4795 27.1152H22.8005C25.6249 27.1152 27.2989 25.3283 27.2989 22.8095C27.2989 20.3014 25.6249 18.5361 22.8005 18.5361H17.3676L15.18 18.4284L16.6692 19.7201L18.6822 21.7761C18.9389 22.0344 19.1135 22.3466 19.1135 22.7879C19.1135 23.5845 18.5795 24.1658 17.7784 24.1658C17.4292 24.1658 17.0595 24.0043 16.7924 23.7244L11.4108 18.1485C11.1541 17.8902 11 17.4812 11 17.0936C11 16.6954 11.1541 16.2971 11.4108 16.028L16.7924 10.4521C17.0595 10.1615 17.4292 10 17.7784 10C18.5795 10 19.1135 10.592 19.1135 11.3778C19.1135 11.8192 18.9389 12.1421 18.6822 12.4004L16.6692 14.4564L15.18 15.7481L17.3676 15.6512H22.8827C27.2476 15.6512 30 18.5899 30 22.8741Z" fill="white"/>
</svg>
