<svg width="24" height="24" viewBox="0 0 24 24" fill="none" xmlns="http://www.w3.org/2000/svg">
<path d="M5.7775 17.563H11.0969V12.7994L11.1691 11.5745L10.6905 12.1824L9.55255 13.4074C9.39902 13.5798 9.18227 13.6614 8.96552 13.6614C8.55008 13.6614 8.19787 13.3529 8.19787 12.9174C8.19787 12.6905 8.28818 12.5181 8.44171 12.3639L11.3046 9.60554C11.5304 9.3787 11.7381 9.29704 11.9729 9.29704C12.2077 9.29704 12.4154 9.3787 12.6412 9.60554L15.5041 12.3639C15.6576 12.5181 15.7479 12.6905 15.7479 12.9174C15.7479 13.3529 15.3867 13.6614 14.9713 13.6614C14.7545 13.6614 14.5468 13.5798 14.3933 13.4074L13.2463 12.1824L12.7767 11.5745L12.8489 12.7994V17.563H18.6921C21.257 17.563 23 16.0024 23 13.8066C23 11.9919 21.9614 10.4131 20.2545 9.7235C20.2545 5.8128 17.4548 3 13.8333 3C11.5755 3 9.85057 4.15234 8.74877 5.73114C6.67159 5.23209 4.27833 6.79274 4.17898 9.22445C2.21921 9.58739 1 11.3295 1 13.3892C1 15.703 2.91461 17.563 5.7775 17.563ZM11.9729 22C12.4425 22 12.8218 21.6098 12.8218 21.1562V17.1457C12.8038 17.5812 12.4425 17.9713 11.9729 17.9713C11.5033 17.9713 11.133 17.5812 11.1149 17.1457V21.1562C11.1149 21.6098 11.4943 22 11.9729 22Z" fill="white"/>
</svg>
